<!-- <svg width="60" height="60" viewbox="0 0 100 100">
  <polygon
    points="0 0, 60 0 , 0 60" fill="#26cb15" />
  <svg x="10" y="10" xmlns="http://www.w3.org/2000/svg" height="16px" viewBox="0 0 24 24" width="16px" fill="#000000"><path d="M0 0h24v24H0z" fill="none"/><path d="M0 0h24v24H0z" fill="none"/><path fill="#fff" d="M12 17.27L18.18 21l-1.64-7.03L22 9.24l-7.19-.61L12 2 9.19 8.63 2 9.24l5.46 4.73L5.82 21z"/></svg>
</svg> -->
<svg width="60" height="60" viewbox="0 0 100 100">
    <polygon
        points="0 0, 60 0 , 0 60" fill="#26cb15" />
    <path d="M0 0h24v24H0z" fill="none" />
    <path d="M0 0h24v24H0z" fill="none" />
    <path fill="#fff" d="M12 17.27L18.18 21l-1.64-7.03L22 9.24l-7.19-.61L12 2 9.19 8.63 2 9.24l5.46 4.73L5.82 21z" />
</svg>

